<?xml version="1.0" standalone="yes"?>

<svg version="1.1" viewBox="0.0 0.0 1635.753280839895 467.71128608923885" fill="none" stroke="none" stroke-linecap="square" stroke-miterlimit="10" xmlns="https://www.w3.org/2000/svg" xmlns:xlink="https://www.w3.org/1999/xlink"><clipPath id="p.0"><path d="m0 0l1635.7533 0l0 467.71127l-1635.7533 0l0 -467.71127z" clip-rule="nonzero"></path></clipPath><g clip-path="url(#p.0)"><path fill="#000000" fill-opacity="0.0" d="m0 0l1635.7533 0l0 467.71127l-1635.7533 0z" fill-rule="evenodd"></path><path fill="#000000" fill-opacity="0.0" d="m327.75067 15.070867l1352.063 0l0 425.7953l-1352.063 0z" fill-rule="evenodd"></path><path fill="#000000" d="m427.36005 287.78098l-54.890625 132.1875l-27.1875 0l160.4375 -383.76562l14.921875 0l160.95312 383.76562l-28.78125 0l-54.890625 -132.1875l-170.5625 0zm84.21875 -208.9375q-0.53125 0.53125 -2.140625 6.40625q-7.453125 22.90625 -14.390625 38.90625l-58.625 141.78125l152.4375 0l-58.625 -141.25q-18.65625 -40.515625 -18.65625 -45.84375zm242.7215 341.125l0 -345.92188l24.53125 0l0 323.53125l158.82812 0l0 22.390625l-183.35938 0zm317.82556 -324.0625l-117.24994 0l0 -21.859375l258.49994 0l0 21.859375l-117.265625 0l0 324.0625l-23.984375 0l0 -324.0625zm366.87122 329.39062q-74.078125 0 -124.1875 -51.703125q-50.09375 -51.703125 -50.09375 -126.578125q0 -74.890625 50.09375 -126.59374q50.109375 -51.703125 124.1875 -51.703125q74.09375 0 124.1875 51.703125q50.109375 51.703117 50.109375 126.59374q0 74.875 -50.109375 126.578125q-50.09375 51.703125 -124.1875 51.703125zm0.265625 -334.71875q-64.21875 0 -106.59375 45.312492q-42.375 45.296875 -42.375 111.125q0 65.8125 42.375 110.859375q42.375 45.03125 106.59375 45.03125q64.234375 0 106.34375 -45.03125q42.109375 -45.046875 42.109375 -110.859375q0 -65.828125 -42.109375 -111.125q-42.109375 -45.312492 -106.34375 -45.312492z" fill-rule="nonzero"></path><path fill="#000000" fill-opacity="0.0" d="m196.33606 373.69138c-11.508713 28.752533 -66.04866 49.35907 -88.565025 28.093933c-34.891556 -32.952606 -46.200882 -124.108 -92.23955 -110.54999" fill-rule="evenodd"></path><path stroke="#3e595f" stroke-width="4.0" stroke-linejoin="round" stroke-linecap="butt" d="m196.33606 373.69138c-11.508713 28.752533 -66.04866 49.35907 -88.565025 28.093933c-34.891556 -32.952606 -46.200882 -124.108 -92.23955 -110.54999" fill-rule="evenodd"></path><path fill="#45ada8" d="m317.35834 80.66814l0 0c51.781433 54.614075 46.220947 135.5706 -12.419708 180.82146q-53.089157 40.96698 -106.178314 81.93393q-46.879288 -49.443756 -93.75858 -98.88754l0 0c-51.781433 -54.614075 -46.220932 -135.57062 12.419731 -180.82147l0 0c58.640656 -45.25086 148.15544 -37.660465 199.93687 16.95362z" fill-rule="evenodd"></path><path fill="#45ada8" d="m161.65382 377.63983l37.66745 -45.791138l32.544388 52.68567z" fill-rule="evenodd"></path><path fill="#000000" fill-opacity="0.0" d="m299.36032 111.91834l-52.4373 6.7297134c5.7920685 -0.74334717 13.51796 12.464371 17.256271 29.50026c3.7383118 17.035904 2.0734253 31.448822 -3.7186584 32.19217l52.437317 -6.729721l0 0c5.792053 -0.74334717 7.45697 -15.156265 3.7186584 -32.192154c-3.7383118 -17.035889 -11.464203 -30.243614 -17.256287 -29.500267z" fill-rule="evenodd"></path><path stroke="#3e595f" stroke-width="4.0" stroke-linejoin="round" stroke-linecap="butt" d="m299.36032 111.91834l-52.4373 6.7297134c5.7920685 -0.74334717 13.51796 12.464371 17.256271 29.50026c3.7383118 17.035904 2.0734253 31.448822 -3.7186584 32.19217l52.437317 -6.729721l0 0c5.792053 -0.74334717 7.45697 -15.156265 3.7186584 -32.192154c-3.7383118 -17.035889 -11.464203 -30.243614 -17.256287 -29.500267z" fill-rule="evenodd"></path></g></svg>

